<?xml version="1.0" standalone="no"?>
<svg
  width="600"
  height="600"
  viewBox="0 0 600 600"
  xmlns="http://www.w3.org/2000/svg"
>
  <g transform="translate(300,300)">
    <path d="M95.1,-123.2C118.3,-94,128.6,-59.2,145.9,-17.4C163.3,24.5,187.7,73.5,176.8,111.3C166,149,119.7,175.5,79.1,169.5C38.5,163.5,3.5,125,-23,99.6C-49.6,74.1,-67.6,61.8,-107,39.5C-146.4,17.3,-207.2,-15,-221.5,-57.3C-235.8,-99.7,-203.7,-152.1,-159.1,-177.6C-114.4,-203,-57.2,-201.5,-10.6,-188.9C36,-176.2,72,-152.5,95.1,-123.2Z" fill="#000000" />
  </g>
</svg>
    