<?xml version="1.0" standalone="no"?>
<svg
  width="600"
  height="600"
  viewBox="0 0 600 600"
  xmlns="http://www.w3.org/2000/svg"
>
  <g transform="translate(300,300)">
    <path d="M105.7,-128.3C130,-105.6,137.9,-65.6,142.3,-27.1C146.8,11.5,147.9,48.8,130.9,73.1C113.9,97.4,78.8,108.9,39.8,133.7C0.7,158.5,-42.4,196.7,-88.4,199C-134.4,201.3,-183.2,167.6,-199.8,123C-216.4,78.5,-200.8,22.9,-189.6,-32.2C-178.5,-87.4,-171.8,-142.1,-141,-163.7C-110.1,-185.2,-55.1,-173.6,-7.2,-165.1C40.7,-156.5,81.4,-151,105.7,-128.3Z" fill="#000000" />
  </g>
</svg>
    